# xmcd
#
# Track frame offsets: 
#        150
#        15350
#        30522
#        42753
#        57344
#        68939
#        87846
#        99129
#        110928
#        124319
#        137356
#        149596
#        165818
#        179623
#        194622
#        210231
#        229926
#        245562
#        261917
#        276509
#        287404
#        301596
#        311120
#
# Disc length: 4327 seconds
#
# Revision: 0
# Processed by: cddbd v1.5.2PL0 Copyright (c) Steve Scherf et al.
# Submitted via: ExactAudioCopy v0.99pb4
#
DISCID=4710e517
DTITLE=Various Artist - Paul Kuhn, Hugo Strasser, Max Greger - Die Deutschen 
DTITLE=Meister Des Swing CD3 - Zeit Zum Träumen
DYEAR=2007
DGENRE=Swing
TTITLE0=Hugo Strasser - Unforgettable
TTITLE1=Max Greger - Aber Dich Gibt's Nur Einmal Für Mich
TTITLE2=Paul Kuhn - Cara-Caramel Chocolat
TTITLE3=Hugo Strasser - I Just Called To Say I Love You
TTITLE4=Hugo Strasser - Chanson D'amour
TTITLE5=Max Greger - Creole Love Call
TTITLE6=Paul Kuhn - Mitten In Der Nacht (In The Middle Of The Dark)
TTITLE7=Max Greger-Big Band - Petite Fleur
TTITLE8=Max Greger - As Time Goes By
TTITLE9=Hugo Strasser - When A Man Loves A Woman
TTITLE10=Max Greger - (Somewhere) Over The Rainbow
TTITLE11=Max Greger - An Angel
TTITLE12=Hugo Strasser - Pretend
TTITLE13=Paul Kuhn - Sentimental Journey
TTITLE14=Hugo Strasser - Stardust
TTITLE15=Max Greger - Senza Una Donna
TTITLE16=Paul Kuhn and Ute-Mann-Singers - The Shadow Of Your Smile
TTITLE17=Hugo Strasser - Smile
TTITLE18=Max Greger - Stardust
TTITLE19=Hugo Strasser - Strangers In The Night (Fremde In Der Nacht)
TTITLE20=Max Greger - Stand By Me
TTITLE21=Paul Kuhn - Davon Träumen Alle Kleinen Mädchen
TTITLE22=Hugo Strasser - Ungeküsst Sollst Du Nicht Schlafen Gehn
EXTD=
EXTT0=
EXTT1=
EXTT2=
EXTT3=
EXTT4=
EXTT5=
EXTT6=
EXTT7=
EXTT8=
EXTT9=
EXTT10=
EXTT11=
EXTT12=
EXTT13=
EXTT14=
EXTT15=
EXTT16=
EXTT17=
EXTT18=
EXTT19=
EXTT20=
EXTT21=
EXTT22=
PLAYORDER=
